<?xml version="1.0" encoding="UTF-8" standalone="no"?><!DOCTYPE svg PUBLIC "-//W3C//DTD SVG 1.1//EN" "http://www.w3.org/Graphics/SVG/1.1/DTD/svg11.dtd"><svg width="100%" height="100%" viewBox="0 0 1200 800" version="1.1" xmlns="http://www.w3.org/2000/svg" xmlns:xlink="http://www.w3.org/1999/xlink" xml:space="preserve" xmlns:serif="http://www.serif.com/" style="fill-rule:evenodd;clip-rule:evenodd;stroke-linejoin:round;stroke-miterlimit:1.41421;"><path d="M170.05,800l118.923,0l0.106,0.414l-119.01,0l-0.019,-0.414Z" style="fill:#a64bee;fill-opacity:0.5;"/><path d="M1200,800l-911.027,0l-144.433,-560.833l25.51,560.833l-25.51,-560.833l0,-0.054l0.175,-0.562l74.258,-237.306l-74.433,-0.001l0,-1.244l1055.46,0l0,800Z" style="fill:#fff;"/><path d="M144.54,239.167l25.529,561.247l-25.529,0l-144.54,0l144.54,-561.247Zm144.433,560.833l-118.923,0l-25.51,-560.833l144.433,560.833Z" style="fill:#a64bee;fill-opacity:0.5;"/><path d="M144.522,239.167l-74.416,-237.925l148.867,0.003l-74.258,237.306l-0.175,0.562l-0.018,0.054Z" style="fill:#6f80e2;fill-opacity:0.543604;"/></svg>